<svg width="356" height="450" viewBox="0 0 356 450" fill="none" xmlns="http://www.w3.org/2000/svg">
<path fill-rule="evenodd" clip-rule="evenodd" d="M96.7489 0.00421823C148.117 0.633703 150.82 75.695 190.962 103.931C224.717 127.674 279.076 119.637 307.528 148.266C338.875 179.807 367.536 225.872 351.316 265.28C334.564 305.982 265.784 304.962 230.592 335.188C199.917 361.534 198.559 408.732 161.77 428.076C122.124 448.922 69.8015 457.507 27.0076 442.233C-15.2246 427.159 -36.6982 386.195 -56.654 350.115C-73.0175 320.53 -73.4646 287.786 -76.5558 254.99C-79.4549 224.232 -88.3986 192.503 -74.1683 164.299C-59.8815 135.983 -22.9316 124.447 0.835718 101.601C35.3162 68.4564 45.7133 -0.621194 96.7489 0.00421823Z" fill="#2BD1DE"/>
</svg>
