<svg width="356" height="478" viewBox="0 0 356 478" fill="none" xmlns="http://www.w3.org/2000/svg">
<path fill-rule="evenodd" clip-rule="evenodd" d="M112.58 7.0655C143.227 -1.47581 174.537 -3.7472 204.485 8.6218C241.402 23.8697 278.342 44.8967 302.942 85.689C331.307 132.724 369.114 196.306 351.493 252.391C332.344 313.338 259.975 293.654 223.787 337.624C195.139 372.433 204.794 451.873 169.822 473.128C135.626 493.913 100.529 441.885 63.4692 435.065C16.8682 426.49 -41.3349 473.768 -74.6328 428.144C-107.158 383.579 -70.6305 305.156 -76.9723 242.637C-83.2734 180.519 -141.384 111.932 -111.519 64.5123C-77.3213 10.2133 -9.49848 67.1109 41.8668 53.9436C68.1246 47.2125 86.4023 14.3613 112.58 7.0655Z" fill="#FF3970"/>
</svg>
