<svg width="356" height="565" viewBox="0 0 356 565" fill="none" xmlns="http://www.w3.org/2000/svg">
<path fill-rule="evenodd" clip-rule="evenodd" d="M244.006 0.817367C288.868 4.01685 327.125 27.6944 368.399 45.5629C418.414 67.2152 476.111 75.6697 511.883 116.787C552.764 163.775 580.577 224.985 578.658 287.238C576.655 352.244 542.492 411.737 501.244 462.02C459.225 513.243 408.813 572.136 342.621 574.975C276.297 577.82 229.365 513.326 174.441 476.037C136.335 450.166 98.2544 426.273 70.0069 389.893C42.9282 355.019 26.2636 314.843 15.9473 271.912C4.74956 225.313 -8.94346 176.162 7.86211 131.279C25.0851 85.2815 64.6712 50.7191 107.663 26.9677C149.006 4.12712 196.893 -2.54264 244.006 0.817367Z" fill="#FFC839"/>
</svg>
