<svg width="370" height="459" viewBox="0 0 370 459" fill="none" xmlns="http://www.w3.org/2000/svg">
<path fill-rule="evenodd" clip-rule="evenodd" d="M260.505 454.422C208.896 438.739 203.067 377.205 166.498 342.195C142.559 319.275 106.834 309.563 84.2333 285.661C55.8822 255.677 29.2655 224.388 19.4544 186.683C6.5233 136.987 -16.995 77.1006 19.5325 37.006C55.7356 -2.73273 128.953 -2.81475 187.364 2.37595C236.112 6.70791 268.674 44.9447 312.908 63.0767C348.035 77.4752 388.738 77.7485 419.958 97.7171C456.479 121.075 494.039 148.321 505.418 186.206C517.178 225.358 497.542 265.22 481.707 303.297C464.565 344.514 449.661 388.895 409.795 416.131C368.301 444.48 310.478 469.609 260.505 454.422Z" fill="#6B3DD8"/>
</svg>
